<?xml version="1.0" standalone="no"?>
<!DOCTYPE svg PUBLIC "-//W3C//DTD SVG 20010904//EN"
 "http://www.w3.org/TR/2001/REC-SVG-20010904/DTD/svg10.dtd">
<svg version="1.0" xmlns="http://www.w3.org/2000/svg"
 width="541.000000pt" height="541.000000pt" viewBox="0 0 541.000000 541.000000"
 preserveAspectRatio="xMidYMid meet">
<metadata>
Created by potrace 1.14, written by Peter Selinger 2001-2017
</metadata>
<g transform="translate(0.000000,541.000000) scale(0.100000,-0.100000)"
fill="#000000" stroke="none">
<path d="M0 2705 l0 -2705 2705 0 2705 0 0 2705 0 2705 -2705 0 -2705 0 0
-2705z m4081 470 c101 -170 217 -377 259 -460 287 -565 344 -920 208 -1314
-146 -423 -438 -747 -868 -961 -198 -99 -387 -162 -614 -206 -200 -38 -189
-37 -181 -16 6 16 36 118 54 187 4 17 20 68 34 115 14 47 36 119 48 160 32
110 81 272 89 295 5 11 14 41 20 66 l12 47 119 52 c372 163 599 434 640 767
27 217 -24 545 -147 941 -42 134 -48 181 -29 212 3 5 9 23 11 38 3 15 12 47
20 72 9 25 18 54 20 65 2 11 13 47 24 80 38 114 60 188 60 204 1 27 30 -19
221 -344z m-1837 -15 c143 -36 267 -114 343 -215 56 -73 79 -126 94 -210 30
-172 -64 -370 -254 -535 -121 -106 -244 -184 -502 -317 -322 -168 -432 -240
-578 -382 -138 -133 -214 -266 -237 -414 -24 -147 3 -291 76 -413 19 -31 33
-59 31 -61 -2 -2 -46 41 -98 95 -178 186 -281 375 -329 609 -82 395 -15 868
172 1209 97 178 253 356 397 454 258 174 619 248 885 180z"/>
</g>
</svg>
