<?xml version="1.0" standalone="no"?>
<!DOCTYPE svg PUBLIC "-//W3C//DTD SVG 20010904//EN"
 "http://www.w3.org/TR/2001/REC-SVG-20010904/DTD/svg10.dtd">
<svg version="1.0" xmlns="http://www.w3.org/2000/svg"
 width="175.000000pt" height="175.000000pt" viewBox="0 0 175.000000 175.000000"
 preserveAspectRatio="xMidYMid meet">
<metadata>
Created by potrace 1.14, written by Peter Selinger 2001-2017
</metadata>
<g transform="translate(0.000000,175.000000) scale(0.100000,-0.100000)"
fill="#000000" stroke="none">
<path d="M1355 1536 c-56 -26 -142 -112 -173 -172 -31 -60 -51 -141 -54 -219
l-3 -70 -56 -3 c-33 -2 -102 7 -170 22 -104 23 -157 40 -433 136 -67 24 -98
30 -126 25 -51 -9 -82 -43 -78 -86 4 -47 48 -70 153 -80 104 -9 122 -15 130
-41 15 -47 -60 -65 -172 -41 -43 9 -108 18 -145 20 -57 4 -72 1 -98 -17 -54
-38 -35 -85 45 -110 43 -14 344 -20 457 -8 49 5 68 3 71 -6 10 -25 -9 -34
-113 -55 -107 -21 -153 -43 -158 -77 -5 -43 11 -49 125 -48 110 0 241 21 435
70 142 35 131 44 127 -96 -2 -66 -9 -124 -15 -130 -7 -7 -17 -4 -35 11 -115
103 -389 109 -504 11 -60 -50 -72 -176 -24 -244 74 -105 206 -169 354 -171
141 -1 220 42 292 162 38 63 53 140 53 282 0 150 9 249 23 249 23 0 204 93
264 136 203 145 242 388 81 514 -81 65 -167 77 -253 36z m116 -197 c56 -29 43
-116 -27 -178 -40 -35 -142 -81 -181 -81 -19 0 -17 101 2 148 39 93 139 147
206 111z"/>
<path d="M43 1378 c-28 -13 -37 -40 -28 -84 14 -75 151 -121 196 -65 65 80
-68 197 -168 149z"/>
<path d="M213 800 c-12 -5 -29 -20 -38 -33 -46 -71 88 -135 150 -72 40 39 29
85 -26 104 -37 13 -56 13 -86 1z"/>
</g>
</svg>
